<svg xmlns="http://www.w3.org/2000/svg" viewBox="0 0 176 54" role="img" aria-labelledby="title desc">
  <title id="title">นายช่างใหญ่ Civil Apps</title>
  <desc id="desc">อักษรย่อ NCY สีน้ำเงินวิศวกรรมและสีส้ม</desc>
  <g fill="#073476">
    <path d="M6 9h12v36H6zM18 9h11l22 26V9h12v36H52L30 19v26H18z"/>
    <path d="M104 9H82C69 9 61 16 61 27s8 18 21 18h22V33H83c-6 0-9-2-9-6s3-6 9-6h21z"/>
  </g>
  <path fill="#ff4b0b" d="M105 9h15l12 14 12-14h15l-21 26v10h-12V35z"/>
  <g fill="#f4f7fb">
    <path d="M77 35h3v7h-3zM84 38h3v4h-3zM91 33h3v9h-3zM98 37h3v5h-3z"/>
  </g>
</svg>
