<svg xmlns="http://www.w3.org/2000/svg" viewBox="0 0 512 512" role="img" aria-labelledby="title desc">
  <title id="title">Procurement PR and PO workbench</title>
  <desc id="desc">A project purchase request sheet, material boxes and a compact cart on a calm blue work surface</desc>
  <defs>
    <linearGradient id="bg" x1="60" y1="30" x2="456" y2="482" gradientUnits="userSpaceOnUse">
      <stop stop-color="#e7eef5"/>
      <stop offset="1" stop-color="#c6d5e4"/>
    </linearGradient>
    <linearGradient id="desk" x1="70" y1="380" x2="440" y2="500" gradientUnits="userSpaceOnUse">
      <stop stop-color="#163d61"/>
      <stop offset="1" stop-color="#0b2948"/>
    </linearGradient>
    <filter id="lift" x="-20%" y="-20%" width="140%" height="150%">
      <feDropShadow dx="0" dy="12" stdDeviation="10" flood-color="#122a40" flood-opacity=".16"/>
    </filter>
  </defs>
  <rect width="512" height="512" rx="52" fill="url(#bg)"/>
  <path d="M45 368c102-38 202-31 422 2v142H45Z" fill="url(#desk)"/>
  <g filter="url(#lift)">
    <rect x="130" y="62" width="252" height="336" rx="18" fill="#f8fafc" stroke="#9fb3c5" stroke-width="4"/>
    <rect x="160" y="94" width="88" height="28" rx="7" fill="#174d7a"/>
    <path d="M275 103h75M275 119h55" stroke="#71879b" stroke-width="8" stroke-linecap="round"/>
    <path d="M160 156h190M160 194h190M160 232h190M160 270h190M160 308h190" stroke="#ccd7e0" stroke-width="3"/>
    <path d="M238 145v174M304 145v174" stroke="#d9e2e9" stroke-width="3"/>
    <rect x="160" y="334" width="108" height="34" rx="7" fill="#dce8f1"/>
    <rect x="282" y="334" width="68" height="34" rx="7" fill="#1d6dd2"/>
    <path d="m298 351 10 9 22-24" fill="none" stroke="#f7fafc" stroke-width="7" stroke-linecap="round" stroke-linejoin="round"/>
  </g>
  <g filter="url(#lift)">
    <path d="M45 318h98l17 96H67Z" fill="#d9b57a" stroke="#8b6a3c" stroke-width="4"/>
    <path d="m45 318 33-26h96l-31 26Z" fill="#edcf99" stroke="#8b6a3c" stroke-width="4"/>
    <path d="m143 318 31-26 16 90-30 32Z" fill="#b68b54" stroke="#8b6a3c" stroke-width="4"/>
    <rect x="76" y="337" width="50" height="28" rx="5" fill="#f2f4f5"/>
    <path d="M85 347h32M85 357h22" stroke="#39536b" stroke-width="4" stroke-linecap="round"/>
  </g>
  <g filter="url(#lift)" stroke="#153b5e" stroke-width="7" stroke-linecap="round" stroke-linejoin="round">
    <path d="M353 304h22l15 75h72l18-52h-96" fill="#edf3f7"/>
    <circle cx="404" cy="403" r="11" fill="#f8fafc"/>
    <circle cx="454" cy="403" r="11" fill="#f8fafc"/>
  </g>
  <g transform="translate(377 212)">
    <rect width="93" height="66" rx="14" fill="#f8fafc" stroke="#94aabe" stroke-width="4"/>
    <circle cx="28" cy="33" r="15" fill="#dce8f1"/>
    <path d="m21 33 5 5 10-12" fill="none" stroke="#1d6dd2" stroke-width="5" stroke-linecap="round" stroke-linejoin="round"/>
    <path d="M53 25h23M53 39h17" stroke="#5b7287" stroke-width="5" stroke-linecap="round"/>
  </g>
</svg>
