<svg xmlns="http://www.w3.org/2000/svg" viewBox="0 0 1200 800" role="img" aria-labelledby="title desc">
  <title id="title">Todo List internal work system checkpoint artwork</title>
  <desc id="desc">A task board for assigning and tracking internal team work, shown with demo data and a closed checkpoint status.</desc>
  <defs>
    <linearGradient id="canvas" x1="80" y1="44" x2="1120" y2="756" gradientUnits="userSpaceOnUse">
      <stop stop-color="oklch(96.5% 0.018 252)" />
      <stop offset="0.62" stop-color="oklch(98.6% 0.006 252)" />
      <stop offset="1" stop-color="oklch(96.8% 0.035 48)" />
    </linearGradient>
    <linearGradient id="header" x1="80" y1="88" x2="1108" y2="164" gradientUnits="userSpaceOnUse">
      <stop stop-color="oklch(25% 0.105 258)" />
      <stop offset="1" stop-color="oklch(36% 0.12 258)" />
    </linearGradient>
    <filter id="lift" x="-16%" y="-16%" width="132%" height="140%">
      <feDropShadow dx="0" dy="12" stdDeviation="16" flood-color="oklch(25% 0.055 257)" flood-opacity="0.14" />
    </filter>
    <style>
      .ui { font-family: Prompt, Sarabun, "Segoe UI", sans-serif; }
      .label { font-family: Prompt, Sarabun, "Segoe UI", sans-serif; font-weight: 700; letter-spacing: 0.04em; }
      .ink { fill: oklch(26% 0.055 257); }
      .muted { fill: oklch(51% 0.025 253); }
      .line { stroke: oklch(86% 0.025 252); }
    </style>
  </defs>

  <rect width="1200" height="800" rx="32" fill="url(#canvas)" />
  <circle cx="1092" cy="104" r="126" fill="oklch(67% 0.225 38)" opacity="0.08" />
  <path d="M0 116C180 44 364 34 546 72C742 113 928 105 1200 30V0H0Z" fill="oklch(91% 0.035 252)" opacity="0.82" />

  <g filter="url(#lift)">
    <rect x="72" y="82" width="1056" height="636" rx="24" fill="oklch(99.4% 0.004 250)" stroke="oklch(82% 0.035 252)" stroke-width="3" />
    <path d="M96 82H1104C1117.25 82 1128 92.75 1128 106V166H72V106C72 92.75 82.75 82 96 82Z" fill="url(#header)" />

    <g class="ui" transform="translate(102 103)">
      <rect width="42" height="42" rx="9" fill="oklch(67% 0.225 38)" />
      <path d="M12 21L18 27L31 13" fill="none" stroke="oklch(98.4% 0.01 48)" stroke-width="4" stroke-linecap="round" stroke-linejoin="round" />
      <text x="58" y="22" fill="oklch(98.4% 0.008 250)" font-size="24" font-weight="750">TODO LIST</text>
      <text x="58" y="40" fill="oklch(87% 0.025 252)" font-size="13" font-weight="600">ระบบงานภายใน</text>
    </g>

    <g class="label" transform="translate(880 105)">
      <rect width="216" height="38" rx="8" fill="oklch(98% 0.01 250)" opacity="0.12" stroke="oklch(88% 0.03 252)" stroke-opacity="0.36" />
      <circle cx="20" cy="19" r="5" fill="oklch(67% 0.225 38)" />
      <text x="34" y="24" fill="oklch(94% 0.012 250)" font-size="13">CHECKPOINT · DEMO DATA</text>
    </g>

    <g class="ui" transform="translate(96 190)">
      <rect width="164" height="500" rx="14" fill="oklch(96.2% 0.015 252)" stroke="oklch(86% 0.025 252)" />
      <text x="18" y="30" class="label muted" font-size="11">WORKSPACE</text>

      <g transform="translate(12 48)">
        <rect width="140" height="46" rx="8" fill="oklch(90.5% 0.04 252)" />
        <rect x="13" y="13" width="20" height="20" rx="4" fill="oklch(34% 0.125 258)" />
        <path d="M18 23L22 27L29 18" fill="none" stroke="oklch(98% 0.006 250)" stroke-width="2.5" stroke-linecap="round" stroke-linejoin="round" />
        <text x="44" y="29" class="ink" font-size="14" font-weight="700">บอร์ดงาน</text>
      </g>

      <g transform="translate(12 106)">
        <rect x="14" y="14" width="18" height="16" rx="3" fill="none" stroke="oklch(51% 0.025 253)" stroke-width="2" />
        <path d="M18 14V11H28V14" fill="none" stroke="oklch(51% 0.025 253)" stroke-width="2" />
        <text x="44" y="28" class="muted" font-size="14" font-weight="600">โปรเจกต์</text>
      </g>

      <g transform="translate(12 158)">
        <circle cx="23" cy="22" r="10" fill="none" stroke="oklch(51% 0.025 253)" stroke-width="2" />
        <path d="M23 16V22L28 25" fill="none" stroke="oklch(51% 0.025 253)" stroke-width="2" stroke-linecap="round" />
        <text x="44" y="27" class="muted" font-size="14" font-weight="600">ไทม์ไลน์</text>
      </g>

      <g transform="translate(12 210)">
        <path d="M15 12H32V31H15Z" fill="none" stroke="oklch(51% 0.025 253)" stroke-width="2" />
        <path d="M19 18H28M19 23H28M19 28H25" stroke="oklch(51% 0.025 253)" stroke-width="2" stroke-linecap="round" />
        <text x="44" y="27" class="muted" font-size="14" font-weight="600">โน้ต</text>
      </g>

      <g transform="translate(12 262)">
        <circle cx="23" cy="17" r="6" fill="none" stroke="oklch(51% 0.025 253)" stroke-width="2" />
        <path d="M13 34C14 27 18 24 23 24C28 24 32 27 33 34" fill="none" stroke="oklch(51% 0.025 253)" stroke-width="2" stroke-linecap="round" />
        <text x="44" y="27" class="muted" font-size="14" font-weight="600">ผังทีม</text>
      </g>

      <g transform="translate(12 404)">
        <rect width="140" height="70" rx="10" fill="oklch(99.4% 0.004 250)" stroke="oklch(86% 0.025 252)" />
        <circle cx="22" cy="22" r="10" fill="oklch(94% 0.03 38)" />
        <path d="M22 15L24 21L30 23L24 25L22 31L20 25L14 23L20 21Z" fill="oklch(58% 0.18 38)" />
        <text x="40" y="27" class="ink" font-size="12" font-weight="700">AI ช่วยจัดงาน</text>
        <text x="14" y="51" class="muted" font-size="11">พิมพ์ประโยคเดียว</text>
      </g>
    </g>

    <g class="ui" transform="translate(284 190)">
      <rect width="820" height="500" rx="14" fill="oklch(97.8% 0.009 250)" stroke="oklch(86% 0.025 252)" />
      <text x="22" y="35" class="ink" font-size="19" font-weight="750">ภาพรวมงานทีม</text>
      <text x="22" y="57" class="muted" font-size="12">มอบหมาย ติดตาม และเห็นงานค้างในจอเดียว</text>
      <g transform="translate(658 21)">
        <circle cx="15" cy="15" r="15" fill="oklch(73% 0.11 250)" />
        <circle cx="39" cy="15" r="15" fill="oklch(72% 0.13 38)" stroke="oklch(97.8% 0.009 250)" stroke-width="3" />
        <circle cx="63" cy="15" r="15" fill="oklch(68% 0.10 155)" stroke="oklch(97.8% 0.009 250)" stroke-width="3" />
        <rect x="91" y="1" width="49" height="28" rx="7" fill="oklch(34% 0.125 258)" />
        <text x="115" y="20" text-anchor="middle" fill="oklch(98% 0.006 250)" font-size="11" font-weight="700">+ งาน</text>
      </g>

      <g transform="translate(20 80)">
        <rect width="246" height="394" rx="11" fill="oklch(95.5% 0.012 252)" stroke="oklch(86% 0.025 252)" />
        <circle cx="18" cy="24" r="5" fill="oklch(51% 0.025 253)" />
        <text x="31" y="29" class="ink" font-size="14" font-weight="700">ต้องทำ</text>
        <rect x="199" y="12" width="30" height="24" rx="6" fill="oklch(89% 0.025 252)" />
        <text x="214" y="29" text-anchor="middle" class="muted" font-size="12" font-weight="700">4</text>

        <g transform="translate(12 52)">
          <rect width="222" height="92" rx="9" fill="oklch(99.4% 0.004 250)" stroke="oklch(84% 0.03 252)" />
          <rect x="12" y="12" width="64" height="20" rx="5" fill="oklch(91% 0.04 252)" />
          <text x="44" y="26" text-anchor="middle" fill="oklch(38% 0.09 258)" font-size="10" font-weight="700">แบบหน้างาน</text>
          <text x="12" y="52" class="ink" font-size="13" font-weight="700">ตรวจรายการส่งมอบ</text>
          <text x="12" y="73" class="muted" font-size="11">กำหนดส่ง พรุ่งนี้</text>
          <circle cx="196" cy="68" r="12" fill="oklch(73% 0.11 250)" />
        </g>

        <g transform="translate(12 156)">
          <rect width="222" height="76" rx="9" fill="oklch(99.4% 0.004 250)" stroke="oklch(84% 0.03 252)" />
          <text x="12" y="28" class="ink" font-size="13" font-weight="700">เตรียมประชุมทีม</text>
          <text x="12" y="51" class="muted" font-size="11">โปรเจกต์ สำนักงานใหม่</text>
          <circle cx="196" cy="38" r="12" fill="oklch(72% 0.13 38)" />
        </g>

        <g transform="translate(12 244)">
          <rect width="222" height="104" rx="9" fill="oklch(99.4% 0.004 250)" stroke="oklch(84% 0.03 252)" stroke-dasharray="5 5" />
          <circle cx="111" cy="40" r="16" fill="oklch(92% 0.025 252)" />
          <path d="M105 40H117M111 34V46" stroke="oklch(51% 0.025 253)" stroke-width="2" stroke-linecap="round" />
          <text x="111" y="72" text-anchor="middle" class="muted" font-size="11">เพิ่มรายการงาน</text>
        </g>
      </g>

      <g transform="translate(286 80)">
        <rect width="246" height="394" rx="11" fill="oklch(95.5% 0.012 252)" stroke="oklch(86% 0.025 252)" />
        <circle cx="18" cy="24" r="5" fill="oklch(70% 0.14 80)" />
        <text x="31" y="29" class="ink" font-size="14" font-weight="700">กำลังทำ</text>
        <rect x="199" y="12" width="30" height="24" rx="6" fill="oklch(93% 0.05 80)" />
        <text x="214" y="29" text-anchor="middle" fill="oklch(43% 0.09 80)" font-size="12" font-weight="700">2</text>

        <g transform="translate(12 52)">
          <rect width="222" height="112" rx="9" fill="oklch(99.4% 0.004 250)" stroke="oklch(84% 0.03 252)" />
          <rect x="12" y="12" width="50" height="20" rx="5" fill="oklch(94% 0.055 38)" />
          <text x="37" y="26" text-anchor="middle" fill="oklch(48% 0.15 38)" font-size="10" font-weight="700">งานด่วน</text>
          <text x="12" y="54" class="ink" font-size="13" font-weight="700">สรุปสถานะผู้รับเหมา</text>
          <text x="12" y="75" class="muted" font-size="11">คืบหน้า 65%</text>
          <rect x="12" y="88" width="158" height="6" rx="3" fill="oklch(90% 0.018 252)" />
          <rect x="12" y="88" width="103" height="6" rx="3" fill="oklch(34% 0.125 258)" />
          <circle cx="196" cy="77" r="12" fill="oklch(68% 0.10 155)" />
        </g>

        <g transform="translate(12 176)">
          <rect width="222" height="92" rx="9" fill="oklch(99.4% 0.004 250)" stroke="oklch(84% 0.03 252)" />
          <text x="12" y="30" class="ink" font-size="13" font-weight="700">อัปเดตแผนประจำสัปดาห์</text>
          <text x="12" y="53" class="muted" font-size="11">ไทม์ไลน์ทีม · วันนี้</text>
          <circle cx="184" cy="67" r="10" fill="oklch(73% 0.11 250)" />
          <circle cx="202" cy="67" r="10" fill="oklch(72% 0.13 38)" stroke="oklch(99.4% 0.004 250)" stroke-width="2" />
        </g>
      </g>

      <g transform="translate(552 80)">
        <rect width="246" height="394" rx="11" fill="oklch(95.5% 0.012 252)" stroke="oklch(86% 0.025 252)" />
        <circle cx="18" cy="24" r="5" fill="oklch(58% 0.13 155)" />
        <text x="31" y="29" class="ink" font-size="14" font-weight="700">เสร็จแล้ว</text>
        <rect x="199" y="12" width="30" height="24" rx="6" fill="oklch(92% 0.045 155)" />
        <text x="214" y="29" text-anchor="middle" fill="oklch(40% 0.10 155)" font-size="12" font-weight="700">8</text>

        <g transform="translate(12 52)">
          <rect width="222" height="82" rx="9" fill="oklch(99.4% 0.004 250)" stroke="oklch(84% 0.03 252)" />
          <circle cx="24" cy="25" r="10" fill="oklch(92% 0.045 155)" />
          <path d="M19 25L23 29L30 20" fill="none" stroke="oklch(43% 0.12 155)" stroke-width="2.5" stroke-linecap="round" stroke-linejoin="round" />
          <text x="44" y="29" class="ink" font-size="13" font-weight="700">ส่งรายงานประจำวัน</text>
          <text x="44" y="52" class="muted" font-size="11">เสร็จเมื่อ 16:40</text>
        </g>

        <g transform="translate(12 146)">
          <rect width="222" height="82" rx="9" fill="oklch(99.4% 0.004 250)" stroke="oklch(84% 0.03 252)" />
          <circle cx="24" cy="25" r="10" fill="oklch(92% 0.045 155)" />
          <path d="M19 25L23 29L30 20" fill="none" stroke="oklch(43% 0.12 155)" stroke-width="2.5" stroke-linecap="round" stroke-linejoin="round" />
          <text x="44" y="29" class="ink" font-size="13" font-weight="700">ตรวจเอกสารสั่งซื้อ</text>
          <text x="44" y="52" class="muted" font-size="11">เสร็จเมื่อวาน</text>
        </g>

        <g transform="translate(12 240)">
          <rect width="222" height="82" rx="9" fill="oklch(99.4% 0.004 250)" stroke="oklch(84% 0.03 252)" />
          <circle cx="24" cy="25" r="10" fill="oklch(92% 0.045 155)" />
          <path d="M19 25L23 29L30 20" fill="none" stroke="oklch(43% 0.12 155)" stroke-width="2.5" stroke-linecap="round" stroke-linejoin="round" />
          <text x="44" y="29" class="ink" font-size="13" font-weight="700">แจ้งทีมเข้าหน้างาน</text>
          <text x="44" y="52" class="muted" font-size="11">เสร็จ 22 ส.ค.</text>
        </g>
      </g>
    </g>
  </g>
</svg>
