<svg xmlns="http://www.w3.org/2000/svg" viewBox="0 0 512 512" role="img" aria-labelledby="title desc">
  <title id="title">Concrete Beam Design Workbench</title>
  <desc id="desc">คานคอนกรีตเสริมเหล็กในโทนสเลต พร้อมเหล็กเสริมและกราฟแรงภายใน</desc>
  <defs>
    <linearGradient id="beam-bg" x1="38" y1="35" x2="472" y2="474" gradientUnits="userSpaceOnUse">
      <stop stop-color="#F8F4EE"/>
      <stop offset=".58" stop-color="#E8EDF0"/>
      <stop offset="1" stop-color="#D8C7BA"/>
    </linearGradient>
    <linearGradient id="beam-face" x1="116" y1="163" x2="399" y2="345" gradientUnits="userSpaceOnUse">
      <stop stop-color="#F9F7F2"/>
      <stop offset=".5" stop-color="#D6DEE4"/>
      <stop offset="1" stop-color="#AAB8C4"/>
    </linearGradient>
    <linearGradient id="beam-side" x1="353" y1="174" x2="419" y2="337" gradientUnits="userSpaceOnUse">
      <stop stop-color="#7E8EA0"/>
      <stop offset="1" stop-color="#3C4A5D"/>
    </linearGradient>
    <filter id="beam-shadow" x="-25%" y="-25%" width="160%" height="170%">
      <feDropShadow dx="0" dy="16" stdDeviation="15" flood-color="#334155" flood-opacity=".18"/>
    </filter>
  </defs>
  <rect width="512" height="512" rx="112" fill="url(#beam-bg)"/>
  <path d="M0 126C102 66 201 58 286 73c88 16 157-2 226-47V0H0Z" fill="#FCFAF6" opacity=".72"/>
  <circle cx="429" cy="91" r="54" fill="#E5B59F" opacity=".54"/>
  <path d="M48 105h108M48 126h68" stroke="#79889A" stroke-width="5" stroke-linecap="round" opacity=".34"/>
  <g filter="url(#beam-shadow)" stroke="#334155" stroke-width="8" stroke-linejoin="round">
    <path d="m92 171 264-35 64 42-268 39Z" fill="#F7F3EC"/>
    <path d="m152 217 268-39v148l-268 44Z" fill="url(#beam-face)"/>
    <path d="m92 171 60 46v153l-60-49Z" fill="#B8C4CE"/>
    <path d="m356 136 64 42v148l-64-41Z" fill="url(#beam-side)"/>
  </g>
  <g fill="none" stroke="#C9654E" stroke-linecap="round">
    <path d="m124 194 253-34M124 333l253-41" stroke-width="11"/>
    <path d="m123 220 17 12v90l-17-14ZM178 207v122m51-129v121m51-128v121m51-128v120m47-126v116" stroke-width="6" opacity=".92"/>
  </g>
  <g fill="#334155" stroke="#F8F4EE" stroke-width="4">
    <circle cx="124" cy="194" r="9"/><circle cx="377" cy="160" r="9"/>
    <circle cx="124" cy="333" r="9"/><circle cx="377" cy="292" r="9"/>
  </g>
  <g transform="translate(56 392)">
    <rect width="400" height="72" rx="25" fill="#F9F7F2" stroke="#C7D0D7" stroke-width="3"/>
    <path d="M31 36h338" stroke="#A6B1BC" stroke-width="4" stroke-linecap="round"/>
    <path d="M31 36c70 0 91 24 154 24 69 0 97-48 184-48" fill="none" stroke="#596C86" stroke-width="9" stroke-linecap="round"/>
    <circle cx="31" cy="36" r="7" fill="#C9654E"/><circle cx="369" cy="12" r="7" fill="#C9654E"/>
  </g>
</svg>
